<svg width="512" height="512" viewBox="0 0 512 512" fill="none" xmlns="http://www.w3.org/2000/svg">
  <rect width="512" height="512" rx="112" fill="#1F2321"/>
  <circle cx="256" cy="256" r="168" stroke="#F6F0E3" stroke-width="20"/>
  <ellipse cx="256" cy="256" rx="84" ry="122" fill="#B05B3B"/>
  <path d="M256 168C240 198 218 228 218 262C218 296 236 326 256 352C276 326 294 296 294 262C294 228 272 198 256 168Z" fill="#1F2321"/>
  <path d="M188 132L202 154M324 132L310 154M136 204L162 214M376 204L350 214M136 304L162 294M376 304L350 294" stroke="#B89950" stroke-width="12" stroke-linecap="round"/>
</svg>
